<?xml version="1.0" encoding="UTF-8" standalone="no"?>
<svg width="120px" height="120px" viewBox="0 0 120 120" version="1.1" xmlns="http://www.w3.org/2000/svg" xmlns:xlink="http://www.w3.org/1999/xlink">
    <!-- Generator: Sketch 3.8.3 (29802) - http://www.bohemiancoding.com/sketch -->
    <title>icon</title>
    <desc>Created with Sketch.</desc>
    <defs>
        <polygon id="path-1" points="0 91.1396538 154.980624 91.1396538 154.980624 -2.84217094e-14 0 -2.84217094e-14"></polygon>
    </defs>
    <g id="Page-1" stroke="none" stroke-width="1" fill="none" fill-rule="evenodd">
        <g id="icon">
            <g id="logo-expressionengine-lrg" transform="translate(-18.000000, 13.000000)">
                <g id="svg2">
                    <g id="g10" transform="translate(77.500000, 46.961083) scale(1, -1) translate(-77.500000, -46.961083) translate(0.000000, 0.961083)">
                        <g id="g12">
                            <g id="g14-Clipped">
                                <mask id="mask-2" fill="white">
                                    <use xlink:href="#path-1"></use>
                                </mask>
                                <g id="path18"></g>
                                <g id="g14" mask="url(#mask-2)">
                                    <g transform="translate(20.302462, 6.070788)">
                                        <g id="g20" transform="translate(55.144229, 5.594675)">
                                            <path d="M0,72.2268136 C0,72.2268136 36.285071,79.4943254 54.2241556,57.3038822 C54.2241556,57.3038822 70.8404807,38.5273234 43.083296,14.6313779 L51.5802637,8.94125924 L18.1580723,0.0277855307 C18.1580723,0.0277855307 43.083296,11.4078672 43.083296,36.6315252 C43.083296,36.6315252 44.9765393,70.7663221 1.7619257e-14,72.2268136" id="path22" fill="#106292"></path>
                                        </g>
                                        <g id="g24" transform="translate(0.054499, 0.013862)">
                                            <path d="M41.1473556,73.3164423 C41.1473556,73.3164423 8.66930612,59.0920407 17.5440391,25.3324653 C17.5440391,25.3324653 23.6880909,0.834032904 58.7437006,0.982845046 C58.7437006,0.982845046 15.1862413,-6.65833155 1.90928379,21.2093883 C1.90928379,21.2093883 -7.48974859,37.9916153 15.6333604,58.816676 L6.83185585,64.3596169 L41.1473556,73.3164423 L41.1473556,73.3164423 Z" id="path26" fill="#106292"></path>
                                        </g>
                                        <g id="g28" transform="translate(34.487660, 18.246704)">
                                            <path d="M23.7895257,40.4719214 C23.7895257,40.4719214 29.0474758,42.2692639 30.5025889,37.3250739 C30.5025889,37.3250739 32.2919952,29.4589668 24.2364898,23.9529175 C24.2364898,23.9529175 21.8876035,21.2560088 12.8247241,20.0202921 C12.8247241,20.0202921 15.8454514,36.7633703 23.7895257,40.4719214 M18.1952676,4.2890897 C10.2511933,7.4357816 12.4894235,17.4363156 12.4894235,17.4363156 C29.6068784,20.132446 34.4179419,23.9529175 34.4179419,23.9529175 C47.5075279,32.7178126 38.8942472,40.9208484 38.8942472,40.9208484 C30.725606,47.8504975 16.852593,41.1832155 16.852593,41.1832155 C5.66477426,36.613702 1.63706033,25.6008252 1.63706033,25.6008252 C-5.29987238,3.12700074 13.0486711,0.356464231 13.0486711,0.356464231 C29.3088507,-2.116448 38.4083055,9.79350451 38.4083055,9.79350451 L36.4321476,11.3684071 C25.914465,0.46838466 18.1952676,4.2890897 18.1952676,4.2890897" id="path30" fill="#106292"></path>
                                        </g>
                                    </g>
                                </g>
                            </g>
                        </g>
                    </g>
                </g>
            </g>
        </g>
    </g>
</svg>